#!OML:ASF E:\acrobat2\Project_11_07_03\Capture day 1\Session 1\Acrobat.ASF
:FULLY-SPECIFIED
:DEGREES
677
root 10.7511 6.03387 11.6579 -88.4937 4.27947 178.041
lowerback -4.8275 -3.42519 5.07017
upperback 0.764478 -4.91126 0.544831
thorax 3.11782 -2.36571 -2.61898
lowerneck 2.75787 -15.0073 -10.2109
upperneck -28.1948 -15.9434 29.1727
head -5.0523 -8.45313 11.7766
rclavicle -2.06736e-014 -1.12562e-014
rhumerus 31.9108 -34.5917 -32.1539
rradius 119.954
rwrist -22.9659
rhand -19.5354 -42.5938
rfingers 7.12502
rthumb 6.78834 -72.4649
lclavicle -2.06736e-014 -1.12562e-014
lhumerus 17.8155 49.0246 2.74664
lradius 108.379
lwrist 34.3406
lhand -5.83408 -24.7171
lfingers 7.12502
lthumb 19.9919 4.27452
rfemur 1.92304 15.0702 -9.10412
rtibia 5.96354e-015
rfoot 30.3144 -24.638
rtoes 34.6815
lfemur -12.1097 -21.9167 2.65903
ltibia 18.9541
lfoot 37.7366 11.1509
ltoes 18.3036
678
root 10.7508 6.03388 11.6583 -88.4994 4.28821 178.028
lowerback -4.82485 -3.42684 5.06778
upperback 0.771654 -4.91317 0.538857
thorax 3.12329 -2.36636 -2.62402
lowerneck 2.70569 -15.026 -10.1978
upperneck -28.1837 -15.9536 29.2561
head -5.02777 -8.46264 11.7945
rclavicle 6.36111e-015 -4.00054e-015
rhumerus 31.9 -34.592 -32.1681
rradius 119.955
rwrist -22.9537
rhand -19.5386 -42.541
rfingers 7.12502
rthumb 6.7852 -72.4122
lclavicle 6.36111e-015 -4.00054e-015
lhumerus 17.8284 49.0297 2.76241
lradius 108.382
lwrist 34.3398
lhand -5.75834 -24.8286
lfingers 7.12502
lthumb 20.0646 4.15541
rfemur 1.93545 15.0607 -9.10904
rtibia 7.95139e-016
rfoot 30.3411 -24.6011
rtoes 34.6539
lfemur -12.106 -21.9344 2.64887
ltibia 18.9429
lfoot 37.7462 11.1629
ltoes 18.351
679
root 10.7506 6.03376 11.6588 -88.4987 4.30845 178.013
lowerback -4.82876 -3.42855 5.05347
upperback 0.775318 -4.91453 0.530196
thorax 3.12957 -2.36692 -2.62555
lowerneck 2.68416 -15.0352 -10.1976
upperneck -28.1946 -15.9537 29.3133
head -5.01955 -8.46527 11.8124
rclavicle -1.03368e-013 -1.69215e-014
rhumerus 31.8834 -34.5942 -32.1757
rradius 119.957
rwrist -22.9398
rhand -19.5303 -42.4916
rfingers 7.12502
rthumb 6.79328 -72.3626
lclavicle -1.03368e-013 -1.69215e-014
lhumerus 17.8431 49.0346 2.78282
lradius 108.385
lwrist 34.332
lhand -5.65205 -24.9758
lfingers 7.12502
lthumb 20.1668 3.99746
rfemur 1.9426 15.0468 -9.12806
rtibia 1.15295e-014
rfoot 30.3768 -24.5471
rtoes 34.6667
lfemur -12.1072 -21.9491 2.62884
ltibia 18.9278
lfoot 37.7478 11.1805
ltoes 18.4149
680
root 10.7503 6.03334 11.6592 -88.4892 4.32871 178
lowerback -4.84406 -3.42968 5.03985
upperback 0.776329 -4.91573 0.521384
thorax 3.13944 -2.3673 -2.62831
lowerneck 2.6812 -15.041 -10.1909
upperneck -28.2156 -15.9529 29.3388
head -5.02289 -8.46644 11.8219
rclavicle 1.06549e-013 -1.83876e-015
rhumerus 31.8687 -34.6013 -32.1756
rradius 119.957
rwrist -22.9258
rhand -19.5085 -42.4519
rfingers 7.12502
rthumb 6.81426 -72.3222
lclavicle 1.06549e-013 -1.83876e-015
lhumerus 17.8561 49.0404 2.79873
lradius 108.386
lwrist 34.3238
lhand -5.55334 -25.1039
lfingers 7.12502
lthumb 20.2617 3.85928
rfemur 1.94128 15.0301 -9.15096
rtibia 1.55052e-014
rfoot 30.408 -24.5085
rtoes 34.7447
lfemur -12.1143 -21.9609 2.61201
ltibia 18.9111
lfoot 37.7361 11.2036
ltoes 18.484
681
root 10.7499 6.03275 11.6594 -88.4781 4.34459 177.991
lowerback -4.86181 -3.43007 5.03046
upperback 0.776743 -4.91637 0.513677
thorax 3.14987 -2.36734 -2.63239
lowerneck 2.67706 -15.0485 -10.1731
upperneck -28.2267 -15.9594 29.339
head -5.0262 -8.47036 11.8193
rclavicle -1.27222e-014 -1.61513e-015
rhumerus 31.8607 -34.6105 -32.1694
rradius 119.953
rwrist -22.9101
rhand -19.4818 -42.4254
rfingers 7.12502
rthumb 6.84004 -72.2949
lclavicle -1.27222e-014 -1.61513e-015
lhumerus 17.8695 49.0439 2.81253
lradius 108.388
lwrist 34.3153
lhand -5.51064 -25.163
lfingers 7.12502
lthumb 20.3027 3.79585
rfemur 1.93677 15.0156 -9.16919
rtibia -6.36111e-015
rfoot 30.4412 -24.4534
rtoes 34.7952
lfemur -12.1214 -21.9709 2.59968
ltibia 18.8961
lfoot 37.7184 11.2191
ltoes 18.4921
682
root 10.7496 6.03228 11.6593 -88.4738 4.35442 177.983
lowerback -4.87031 -3.43021 5.02584
upperback 0.778324 -4.91655 0.507737
thorax 3.15613 -2.36721 -2.63664
lowerneck 2.66049 -15.058 -10.1503
upperneck -28.2154 -15.9743 29.3235
head -5.02145 -8.47733 11.8061
rclavicle 6.36111e-014 -3.83157e-014
rhumerus 31.8599 -34.6204 -32.1579
rradius 119.945
rwrist -22.8981
rhand -19.4643 -42.4082
rfingers 7.12502
rthumb 6.85698 -72.2772
lclavicle 6.36111e-014 -3.83157e-014
lhumerus 17.8826 49.046 2.8269
lradius 108.387
lwrist 34.3055
lhand -5.53732 -25.1423
lfingers 7.12502
lthumb 20.2771 3.81929
rfemur 1.93647 15.0063 -9.17796
rtibia -7.95139e-016
rfoot 30.5036 -24.3595
rtoes 34.7086
lfemur -12.1241 -21.9768 2.59097
ltibia 18.8878
lfoot 37.7125 11.2328
ltoes 18.5077
683
root 10.7493 6.03196 11.6591 -88.4785 4.34997 177.977
lowerback -4.86739 -3.42951 5.03536
upperback 0.781913 -4.91611 0.505896
thorax 3.15731 -2.36671 -2.6437
lowerneck 2.6381 -15.0659 -10.1258
upperneck -28.193 -15.9912 29.2878
head -5.01474 -8.48361 11.7839
rclavicle 3.33958e-014 1.15295e-014
rhumerus 31.8624 -34.6302 -32.1446
rradius 119.935
rwrist -22.8926
rhand -19.4587 -42.3957
rfingers 7.12502
rthumb 6.86236 -72.2645
lclavicle 3.33958e-014 1.15295e-014
lhumerus 17.8956 49.0478 2.84275
lradius 108.383
lwrist 34.2929
lhand -5.60863 -25.0777
lfingers 7.12502
lthumb 20.2085 3.89114
rfemur 1.94351 15.0033 -9.16912
rtibia -6.75868e-015
rfoot 30.5571 -24.257
rtoes 34.5822
lfemur -12.1227 -21.978 2.59401
ltibia 18.8918
lfoot 37.7272 11.2483
ltoes 18.6004
684
root 10.7489 6.03178 11.6589 -88.4944 4.32559 177.97
lowerback -4.85191 -3.42869 5.06544
upperback 0.788833 -4.91641 0.509377
thorax 3.15365 -2.36642 -2.6559
lowerneck 2.62279 -15.0667 -10.1075
upperneck -28.1801 -15.9995 29.2315
head -5.01599 -8.48329 11.7583
rclavicle -9.54166e-014 2.46245e-014
rhumerus 31.8653 -34.6386 -32.137
rradius 119.928
rwrist -22.8854
rhand -19.453 -42.389
rfingers 7.12502
rthumb 6.86785 -72.2576
lclavicle -9.54166e-014 2.46245e-014
lhumerus 17.9114 49.05 2.8622
lradius 108.375
lwrist 34.2749
lhand -5.69072 -25.012
lfingers 7.12502
lthumb 20.1296 3.96509
rfemur 1.96304 15.0051 -9.13593
rtibia 1.55052e-014
rfoot 30.5774 -24.1748
rtoes 34.4691
lfemur -12.119 -21.9758 2.61446
ltibia 18.911
lfoot 37.7596 11.2407
ltoes 18.6824
685
root 10.7485 6.03168 11.6587 -88.519 4.28154 177.96
lowerback -4.82784 -3.42816 5.11634
upperback 0.798908 -4.91826 0.517924
thorax 3.14708 -2.36665 -2.67399
lowerneck 2.62474 -15.0572 -10.1046
upperneck -28.187 -15.9929 29.1653
head -5.02894 -8.47376 11.7372
rclavicle -5.725e-014 4.39066e-014
rhumerus 31.8634 -34.6464 -32.1365
rradius 119.925
rwrist -22.8725
rhand -19.4374 -42.3726
rfingers 7.12502
rthumb 6.8829 -72.2407
lclavicle -5.725e-014 4.39066e-014
lhumerus 17.929 49.0535 2.88295
lradius 108.367
lwrist 34.2571
lhand -5.75426 -24.9622
lfingers 7.12502
lthumb 20.0686 4.02136
rfemur 1.99433 15.009 -9.07888
rtibia 1.39149e-014
rfoot 30.5532 -24.128
rtoes 34.4344
lfemur -12.115 -21.9734 2.6534
ltibia 18.9439
lfoot 37.8021 11.184
ltoes 18.6425
686
root 10.7481 6.03158 11.6585 -88.5448 4.22537 177.947
lowerback -4.80339 -3.42729 5.1801
upperback 0.809613 -4.9206 0.53021
thorax 3.1402 -2.36696 -2.69536
lowerneck 2.63812 -15.0401 -10.1185
upperneck -28.2055 -15.9763 29.0918
head -5.04854 -8.45745 11.7197
rclavicle -1.27222e-014 1.74682e-014
rhumerus 31.8528 -34.6545 -32.1382
rradius 119.927
rwrist -22.8541
rhand -19.4168 -42.3472
rfingers 7.12502
rthumb 6.90281 -72.2146
lclavicle -1.27222e-014 1.74682e-014
lhumerus 17.953 49.0584 2.90727
lradius 108.357
lwrist 34.2414
lhand -5.78727 -24.9321
lfingers 7.12502
lthumb 20.0368 4.05475
rfemur 2.02895 15.0113 -9.00791
rtibia -2.90226e-014
rfoot 30.5124 -24.1133
rtoes 34.4474
lfemur -12.115 -21.9743 2.70578
ltibia 18.9845
lfoot 37.8425 11.0923
ltoes 18.4923
